<svg xmlns="http://www.w3.org/2000/svg" viewBox="0 0 100 100">
  <defs>
    <linearGradient id="grad1" x1="0%" y1="0%" x2="100%" y2="100%">
      <stop offset="0%" style="stop-color:#ff6b35;stop-opacity:1" />
      <stop offset="100%" style="stop-color:#d84315;stop-opacity:1" />
    </linearGradient>
  </defs>
  
  <!-- Orange background rounded square -->
  <rect x="6" y="6" width="88" height="88" rx="14" ry="14" fill="url(#grad1)"/>
  
  <!-- Reduced trophy icon for cleaner look -->
  <!-- Cup (smaller, centered) -->
  <path d="M50 28
           C44 28 40 32 40 38
           V44
           C40 50 45 56 50 58
           C55 56 60 50 60 44
           V38
           C60 32 56 28 50 28
           Z" fill="#ffcf33" stroke="white" stroke-width="3"/>
  <!-- Handles scaled down -->
  <path d="M40 34 C36 34 34 37 34 40 C34 45 37 48 40 48" fill="none" stroke="#ffcf33" stroke-width="4" stroke-linecap="round"/>
  <path d="M60 34 C64 34 66 37 66 40 C66 45 63 48 60 48" fill="none" stroke="#ffcf33" stroke-width="4" stroke-linecap="round"/>
  <!-- Stem and base smaller -->
  <rect x="48" y="58" width="4" height="7" fill="#ffcf33"/>
  <rect x="44" y="65" width="12" height="5" rx="2" fill="#ffcf33"/>
</svg>
